<svg id="Camada_1" data-name="Camada 1" xmlns="http://www.w3.org/2000/svg" viewBox="0 0 111.58 111.58"><defs><style>.cls-1{fill:#fff;stroke-width:4px;}.cls-1,.cls-2{stroke:#80173b;stroke-miterlimit:10;}.cls-2{fill:#80173b;}</style></defs><title>fb</title><circle class="cls-1" cx="55.79" cy="55.79" r="53.79"/><path class="cls-2" d="M292.23,223.87v12.61h-.72c-1.94,0-3.89-.07-5.83,0a21.56,21.56,0,0,0-4.16.55,4.26,4.26,0,0,0-3.32,4.19c-.17,3.59.2,7.37-.05,10.86h13.71L290,266.22H278V302H263.42V266.27H251.5v-14.1h11.93v-.89c0-2.94,0-5.88,0-8.82a24.61,24.61,0,0,1,1.36-8.59,15.13,15.13,0,0,1,6.6-8,16.83,16.83,0,0,1,7.3-2.31C278.77,223.57,290.66,223.77,292.23,223.87Z" transform="translate(-219.75 -206.93)"/></svg>