<svg id="Camada_1" data-name="Camada 1" xmlns="http://www.w3.org/2000/svg" viewBox="0 0 111.58 111.58"><defs><style>.cls-1{fill:#fff;stroke-width:4px;}.cls-1,.cls-3{stroke:#80173b;stroke-miterlimit:10;}.cls-2,.cls-3{fill:#80173b;}</style></defs><title>ig</title><circle class="cls-1" cx="55.79" cy="55.79" r="53.79"/><path class="cls-2" d="M257.57,230.07h35.95a3.24,3.24,0,0,0,.41.13c.95.22,1.93.35,2.85.65a16.3,16.3,0,0,1,11.4,15.73c0,2.93,0,5.86,0,8.79,0,7.82,0,15.64,0,23.46a15.27,15.27,0,0,1-1.37,6.68c-3.06,6.4-8.16,9.78-15.29,9.83-10.64.06-21.29,0-31.93,0a16.45,16.45,0,0,1-16.42-13.25c-.1-.47-.18-.95-.28-1.42V244.74a1.19,1.19,0,0,0,.12-.29,15.38,15.38,0,0,1,1.69-5.49,16.36,16.36,0,0,1,11.44-8.61Zm-9.19,32.65h0c0,5.29,0,10.58,0,15.87a16.29,16.29,0,0,0,.13,2.09,10.78,10.78,0,0,0,10.2,9.19c11.11,0,22.22,0,33.33,0a11.81,11.81,0,0,0,1.45-.12,10.78,10.78,0,0,0,9.21-10.32c0-11.09,0-22.18,0-33.27a10.86,10.86,0,0,0-10.36-10.61c-11.11,0-22.22,0-33.33,0a12,12,0,0,0-1.46.12,10.83,10.83,0,0,0-9.17,10.22C248.34,251.5,248.38,257.11,248.38,262.72Z" transform="translate(-219.75 -206.93)"/><path class="cls-3" d="M275.54,279a16.32,16.32,0,1,1,16.32-16.32A16.32,16.32,0,0,1,275.54,279Z" transform="translate(-219.75 -206.93)"/><path class="cls-2" d="M293.24,249.1a4,4,0,0,1-4.08-4.07,4.09,4.09,0,0,1,4.09-4.09,4.08,4.08,0,0,1,0,8.16Z" transform="translate(-219.75 -206.93)"/></svg>