<svg id="Camada_1" data-name="Camada 1" xmlns="http://www.w3.org/2000/svg" viewBox="0 0 323.42 57.21"><defs><style>.cls-1{fill:#1b75bc;stroke:#1b75bc;}.cls-1,.cls-2{stroke-miterlimit:10;}.cls-2{fill:#fff;stroke:#fff;stroke-width:2px;}</style></defs><title>novidade</title><path class="cls-1" d="M6.79.5h288a28.1,28.1,0,0,1,28.1,28.1v0a28.1,28.1,0,0,1-28.1,28.1H6.79A6.29,6.29,0,0,1,.5,50.42V6.79A6.29,6.29,0,0,1,6.79.5Z"/><path class="cls-2" d="M200.36,155.27V129.61h5.57l12.67,13a71.09,71.09,0,0,1,7.1,8.34l.12,0a74.26,74.26,0,0,1-.59-10.55V129.61H230v25.66h-5.16l-12.55-13a81.71,81.71,0,0,1-7.4-8.57l-.17,0c.29,3.23.41,6.32.41,10.58v11Z" transform="translate(-186.31 -115.49)"/><path class="cls-2" d="M264.49,145.9c0,6.81-7.28,9.78-14.14,9.78-7.69,0-13.61-3.65-13.61-9.48,0-6.16,6.21-9.78,14.08-9.78C259,136.42,264.49,140.27,264.49,145.9Zm-22.53.19c0,4,3.58,7.08,8.62,7.08s8.63-3,8.63-7.16c0-3.12-2.41-7.08-8.51-7.08S242,142.59,242,146.09Z" transform="translate(-186.31 -115.49)"/><path class="cls-2" d="M272.59,136.84l5.57,10.35a36.86,36.86,0,0,1,2.29,4.73h.17a49.33,49.33,0,0,1,2.41-4.73l5.51-10.35h5.4l-11.15,18.43h-4.92l-10.8-18.43Z" transform="translate(-186.31 -115.49)"/><path class="cls-2" d="M304.56,131.66c.06,1.14-1.23,2.06-3.28,2.06-1.82,0-3.11-.92-3.11-2.06s1.35-2.09,3.23-2.09S304.56,130.48,304.56,131.66Zm-5.75,23.61V136.84H304v18.43Z" transform="translate(-186.31 -115.49)"/><path class="cls-2" d="M337.07,128.23v22.28a40.24,40.24,0,0,0,.23,4.76h-4.63l-.24-3.2h-.11c-1.59,2.05-5.05,3.61-9.68,3.61-6.87,0-12.15-3.76-12.15-9.36-.06-6.13,5.81-9.9,12.73-9.9,4.34,0,7.28,1.33,8.57,2.82h.12v-11Zm-5.16,16.11a3.88,3.88,0,0,0-.24-1.41c-.76-2.13-3.58-3.88-7.45-3.88-5.34,0-8.51,3-8.51,7.12,0,3.73,2.82,6.81,8.39,6.81,3.46,0,6.63-1.48,7.57-4a3.76,3.76,0,0,0,.24-1.44Z" transform="translate(-186.31 -115.49)"/><path class="cls-2" d="M361.36,155.27l-.41-2.33h-.18c-1.58,1.45-4.63,2.74-8.68,2.74-5.75,0-8.68-2.62-8.68-5.29,0-4.45,6.1-6.89,17.07-6.85v-.38c0-1.52-.64-4.27-6.45-4.27a20.16,20.16,0,0,0-7.4,1.38l-1.17-2.21a25.23,25.23,0,0,1,9.33-1.64c8.68,0,10.8,3.85,10.8,7.54v6.89a17.2,17.2,0,0,0,.46,4.42Zm-.76-9.41c-5.63-.07-12,.57-12,4.15,0,2.17,2.23,3.2,4.87,3.2,3.7,0,6-1.52,6.86-3.08a2.44,2.44,0,0,0,.3-1.07Z" transform="translate(-186.31 -115.49)"/><path class="cls-2" d="M398.44,128.23v22.28a38.08,38.08,0,0,0,.24,4.76H394l-.23-3.2h-.12c-1.58,2.05-5,3.61-9.68,3.61-6.86,0-12.14-3.76-12.14-9.36-.06-6.13,5.8-9.9,12.73-9.9,4.34,0,7.27,1.33,8.56,2.82h.12v-11Zm-5.16,16.11a3.88,3.88,0,0,0-.24-1.41c-.76-2.13-3.57-3.88-7.45-3.88-5.34,0-8.5,3-8.5,7.12,0,3.73,2.81,6.81,8.39,6.81,3.46,0,6.63-1.48,7.56-4a3.76,3.76,0,0,0,.24-1.44Z" transform="translate(-186.31 -115.49)"/><path class="cls-2" d="M409.89,146.66c.11,4.53,4.57,6.4,9.74,6.4a27.81,27.81,0,0,0,7.86-.95l.88,2.39a33.72,33.72,0,0,1-9.45,1.15c-8.74,0-14-3.73-14-9.29s5-9.94,13.32-9.94c9.27,0,11.73,5.29,11.73,8.68a8,8,0,0,1-.18,1.56Zm15.13-2.4c.06-2.13-1.35-5.44-7.15-5.44-5.23,0-7.51,3.12-7.92,5.44Z" transform="translate(-186.31 -115.49)"/><path class="cls-2" d="M437.11,152.36c.29-1.34,1.94-2,3.89-1.56s3.16,1.72,2.87,3-1.83,2-3.9,1.56S436.82,153.66,437.11,152.36Zm2.61-5,3.15-18,5.5,1.22-4.76,17.66Z" transform="translate(-186.31 -115.49)"/></svg>