<svg id="Camada_1" data-name="Camada 1" xmlns="http://www.w3.org/2000/svg" viewBox="0 0 111.58 111.58"><defs><style>.cls-1{fill:#fff;stroke-width:4px;}.cls-1,.cls-2{stroke:#80173b;stroke-miterlimit:10;}.cls-2{fill:#80173b;}</style></defs><title>tw</title><circle class="cls-1" cx="55.79" cy="55.79" r="53.79"/><path class="cls-2" d="M241.84,288.53a30.2,30.2,0,0,0,21.73-6.08c-6.79-.63-11.24-4.05-13.77-10.36h6.31l.05-.25c-7.16-2.27-11-7.13-11.53-14.79a15.57,15.57,0,0,0,6.53,1.84c-6.3-5.56-8.22-12-4.33-19.79,8.06,9.41,18,14.68,30.46,15.46a15.75,15.75,0,0,1,0-6.34,14.86,14.86,0,0,1,15.47-11.78,15.08,15.08,0,0,1,9.46,4.19,1.34,1.34,0,0,0,1,.28,29.82,29.82,0,0,0,8.79-3.43,15.7,15.7,0,0,1-6.06,8.17c.86-.16,1.73-.31,2.58-.51s1.76-.45,2.62-.72,1.69-.6,2.54-.9l.16.18a38.91,38.91,0,0,1-2.61,3.24c-1.33,1.36-2.8,2.58-4.18,3.9a1.49,1.49,0,0,0-.49,1,42.74,42.74,0,0,1-10,28.71,38.9,38.9,0,0,1-24.49,14.06,42,42,0,0,1-29.76-5.72C242.2,288.82,242.12,288.74,241.84,288.53Z" transform="translate(-219.75 -206.93)"/></svg>