<?xml version="1.0" encoding="utf-8"?>
<!-- Generator: Adobe Illustrator 23.0.1, SVG Export Plug-In . SVG Version: 6.00 Build 0)  -->
<svg version="1.1" id="Capa_1" xmlns="http://www.w3.org/2000/svg" xmlns:xlink="http://www.w3.org/1999/xlink" x="0px" y="0px"
	 viewBox="0 0 512 512" style="enable-background:new 0 0 512 512;" xml:space="preserve">
<style type="text/css">
	.st0{fill:#80173B;}
	.st1{fill:#80173B;stroke:#80173B;stroke-width:19;stroke-miterlimit:10;}
</style>
<g>
	<g>
		<path class="st0" d="M437.1,74.9c-99.8-99.8-262.3-99.8-362.1,0C26.6,123.3,0,187.6,0,256s26.6,132.7,75,181
			c49.9,49.9,115.5,74.9,181.1,74.9s131.1-25,181.1-74.9C537,337.2,537,174.8,437.1,74.9z M409.1,409c-84.4,84.4-221.7,84.4-306,0
			c-40.9-40.9-63.4-95.2-63.4-153S62.2,143.9,103,103c84.4-84.4,221.7-84.4,306,0C493.4,187.4,493.4,324.7,409.1,409z"/>
	</g>
</g>
<g>
	<g>
		<path class="st1" d="M380.8,336.9l-82.3-82.2l82.3-82.2c11.3-11.3,11.3-29.7,0-41.1c-11.4-11.4-29.8-11.4-41.1,0l-82.4,82.2
			l-82.4-82.2c-11.4-11.3-29.8-11.4-41.1,0c-11.3,11.4-11.3,29.8,0,41.1l82.3,82.2l-82.3,82.2c-11.4,11.3-11.4,29.7,0,41.1
			c5.7,5.7,13.1,8.5,20.6,8.5s14.9-2.8,20.6-8.5l82.4-82.2l82.4,82.2c5.7,5.7,13.1,8.5,20.6,8.5c7.4,0,14.9-2.8,20.6-8.5
			C392.1,366.7,392.1,348.3,380.8,336.9z"/>
	</g>
</g>
</svg>
