<svg id="Camada_1" data-name="Camada 1" xmlns="http://www.w3.org/2000/svg" viewBox="0 0 350.18 132.85"><defs><style>.cls-1{fill:#e4a124;stroke:#e4a124;}.cls-1,.cls-2,.cls-3{stroke-miterlimit:10;}.cls-2{fill:#fff;stroke:#fff;stroke-width:2px;}.cls-3{fill:#1b75bc;stroke:#1b75bc;}</style></defs><title>novidade_destacado</title><path class="cls-1" d="M6.79.5H321.57a28.1,28.1,0,0,1,28.1,28.1v0a28.1,28.1,0,0,1-28.1,28.1H6.79A6.29,6.29,0,0,1,.5,50.42V6.79A6.29,6.29,0,0,1,6.79.5Z"/><path class="cls-2" d="M200.36,130c3.11-.31,6.8-.53,10.85-.53,7.33,0,12.56,1.1,16,3.19s5.57,5.07,5.57,9.22a11.44,11.44,0,0,1-5.69,10c-3.7,2.4-9.8,3.69-17.48,3.69-3.64,0-6.69-.11-9.27-.3Zm5.1,22.69a50.11,50.11,0,0,0,5.16.19c10.92,0,16.84-4,16.84-10.89.06-6.05-5.22-9.9-16-9.9a44.37,44.37,0,0,0-6,.34Z" transform="translate(-186.31 -115.49)"/><path class="cls-2" d="M242.37,146.66c.11,4.53,4.57,6.4,9.74,6.4a27.81,27.81,0,0,0,7.86-.95l.88,2.39a33.72,33.72,0,0,1-9.45,1.15c-8.74,0-14-3.73-14-9.29s5-9.94,13.32-9.94c9.27,0,11.73,5.29,11.73,8.68a8,8,0,0,1-.18,1.56Zm15.13-2.4c.06-2.13-1.35-5.44-7.15-5.44-5.23,0-7.51,3.12-7.92,5.44Z" transform="translate(-186.31 -115.49)"/><path class="cls-2" d="M268.19,151.84a19,19,0,0,0,6.8,1.33c3.76,0,5.52-1.22,5.52-2.74S279,148,275.23,147c-5.11-1.18-7.51-3-7.51-5.21,0-3,3.69-5.41,9.79-5.41a20.49,20.49,0,0,1,7,1.14L283.2,140a15.51,15.51,0,0,0-5.8-1.07c-3,0-4.76,1.14-4.76,2.52s1.71,2.2,5.4,3.12c4.93,1.22,7.45,2.81,7.45,5.56,0,3.23-3.87,5.52-10.62,5.52a23.53,23.53,0,0,1-8-1.26Z" transform="translate(-186.31 -115.49)"/><path class="cls-2" d="M298.34,131.55v5.29h7.4v2.55h-7.4v9.94c0,2.28,1,3.57,3.88,3.57a18.18,18.18,0,0,0,3-.22l.23,2.51a18.72,18.72,0,0,1-4.57.46,9.52,9.52,0,0,1-5.58-1.41c-1.46-1-2-2.63-2-4.8V139.39h-4.4v-2.55h4.4v-4.42Z" transform="translate(-186.31 -115.49)"/><path class="cls-2" d="M327.27,155.27l-.41-2.33h-.18c-1.58,1.45-4.63,2.74-8.68,2.74-5.75,0-8.68-2.62-8.68-5.29,0-4.45,6.1-6.89,17.07-6.85v-.38c0-1.52-.65-4.27-6.45-4.27a20.16,20.16,0,0,0-7.4,1.38l-1.17-2.21a25.23,25.23,0,0,1,9.33-1.64c8.68,0,10.79,3.85,10.79,7.54v6.89a17.18,17.18,0,0,0,.47,4.42Zm-.76-9.41c-5.64-.07-12,.57-12,4.15,0,2.17,2.23,3.2,4.87,3.2,3.69,0,6-1.52,6.86-3.08a2.44,2.44,0,0,0,.3-1.07Z" transform="translate(-186.31 -115.49)"/><path class="cls-2" d="M359.19,152.41h-.12c-1.52,1.83-4.69,3.27-9.27,3.27-6.63,0-12-3.73-12-9.32,0-6.89,6.87-9.94,12.85-9.94,4.4,0,7.34,1.41,8.74,3.2h.12l.18-2.78h4.87c-.12,1.56-.18,3.16-.18,5.06v20.9h-5.16Zm0-8.11a3.74,3.74,0,0,0-.24-1.41c-.76-2-3.52-3.81-7.39-3.81-5.34,0-8.56,2.94-8.56,7.09,0,3.65,2.69,6.85,8.39,6.85,3.34,0,6.21-1.33,7.39-3.66a3.91,3.91,0,0,0,.41-1.59Z" transform="translate(-186.31 -115.49)"/><path class="cls-2" d="M396.62,150.24a41.86,41.86,0,0,0,.24,5h-4.58l-.29-3h-.12c-1.35,1.48-4.34,3.42-9.39,3.42-4.46,0-9.79-1.6-9.79-8.07V136.84h5.16V147c0,3.5,1.64,5.86,6.34,5.86,3.46,0,5.86-1.56,6.8-3a3.48,3.48,0,0,0,.47-1.71V136.84h5.16Z" transform="translate(-186.31 -115.49)"/><path class="cls-2" d="M408.07,146.66c.11,4.53,4.57,6.4,9.74,6.4a27.81,27.81,0,0,0,7.86-.95l.88,2.39a33.72,33.72,0,0,1-9.45,1.15c-8.74,0-14-3.73-14-9.29s5-9.94,13.32-9.94c9.27,0,11.73,5.29,11.73,8.68a8,8,0,0,1-.18,1.56Zm15.13-2.4c.06-2.13-1.35-5.44-7.15-5.44-5.23,0-7.51,3.12-7.92,5.44Z" transform="translate(-186.31 -115.49)"/><path class="cls-2" d="M437.11,152.36c.29-1.34,1.94-2,3.89-1.56s3.16,1.72,2.87,3-1.83,2-3.9,1.56S436.82,153.66,437.11,152.36Zm2.61-5,3.15-18,5.5,1.22-4.76,17.66Z" transform="translate(-186.31 -115.49)"/><path class="cls-3" d="M6.79,76.15H294a28.1,28.1,0,0,1,28.1,28.1v0a28.1,28.1,0,0,1-28.1,28.1H6.79A6.29,6.29,0,0,1,.5,126.07V82.43a6.29,6.29,0,0,1,6.29-6.29Z"/><path class="cls-2" d="M200.36,230.91V205.25h5.57l12.67,13a71.09,71.09,0,0,1,7.1,8.34l.12,0a74.11,74.11,0,0,1-.59-10.54V205.25H230v25.66h-5.16l-12.55-13a81.71,81.71,0,0,1-7.4-8.57l-.17,0c.29,3.24.41,6.32.41,10.59v11Z" transform="translate(-186.31 -115.49)"/><path class="cls-2" d="M264.49,221.54c0,6.82-7.28,9.79-14.14,9.79-7.69,0-13.61-3.66-13.61-9.48,0-6.17,6.21-9.79,14.08-9.79C259,212.06,264.49,215.91,264.49,221.54Zm-22.53.2c0,4,3.58,7.08,8.62,7.08s8.63-3,8.63-7.16c0-3.12-2.41-7.08-8.51-7.08S242,218.23,242,221.74Z" transform="translate(-186.31 -115.49)"/><path class="cls-2" d="M272.59,212.48l5.57,10.36a36.77,36.77,0,0,1,2.29,4.72h.17a49.22,49.22,0,0,1,2.41-4.72l5.51-10.36h5.4l-11.15,18.43h-4.92l-10.8-18.43Z" transform="translate(-186.31 -115.49)"/><path class="cls-2" d="M304.56,207.31c.06,1.14-1.23,2.05-3.28,2.05-1.82,0-3.11-.91-3.11-2.05s1.35-2.1,3.23-2.1S304.56,206.13,304.56,207.31Zm-5.75,23.6V212.48H304v18.43Z" transform="translate(-186.31 -115.49)"/><path class="cls-2" d="M337.07,203.88v22.27a40.13,40.13,0,0,0,.23,4.76h-4.63l-.24-3.2h-.11c-1.59,2.06-5.05,3.62-9.68,3.62-6.87,0-12.15-3.77-12.15-9.37-.06-6.13,5.81-9.9,12.73-9.9,4.34,0,7.28,1.34,8.57,2.82h.12v-11ZM331.91,220a3.79,3.79,0,0,0-.24-1.4c-.76-2.14-3.58-3.89-7.45-3.89-5.34,0-8.51,3.05-8.51,7.12,0,3.73,2.82,6.82,8.39,6.82,3.46,0,6.63-1.49,7.57-4a3.84,3.84,0,0,0,.24-1.45Z" transform="translate(-186.31 -115.49)"/><path class="cls-2" d="M361.36,230.91l-.41-2.32h-.18c-1.58,1.44-4.63,2.74-8.68,2.74-5.75,0-8.68-2.63-8.68-5.29,0-4.46,6.1-6.89,17.07-6.86v-.38c0-1.52-.64-4.26-6.45-4.26a20.16,20.16,0,0,0-7.4,1.37l-1.17-2.21a25.23,25.23,0,0,1,9.33-1.64c8.68,0,10.8,3.85,10.8,7.54v6.89a17.2,17.2,0,0,0,.46,4.42Zm-.76-9.4c-5.63-.08-12,.57-12,4.15,0,2.17,2.23,3.19,4.87,3.19,3.7,0,6-1.52,6.86-3.08a2.37,2.37,0,0,0,.3-1.07Z" transform="translate(-186.31 -115.49)"/><path class="cls-2" d="M398.44,203.88v22.27a38,38,0,0,0,.24,4.76H394l-.23-3.2h-.12c-1.58,2.06-5,3.62-9.68,3.62-6.86,0-12.14-3.77-12.14-9.37-.06-6.13,5.8-9.9,12.73-9.9,4.34,0,7.27,1.34,8.56,2.82h.12v-11ZM393.28,220a3.79,3.79,0,0,0-.24-1.4c-.76-2.14-3.57-3.89-7.45-3.89-5.34,0-8.5,3.05-8.5,7.12,0,3.73,2.81,6.82,8.39,6.82,3.46,0,6.63-1.49,7.56-4a3.84,3.84,0,0,0,.24-1.45Z" transform="translate(-186.31 -115.49)"/><path class="cls-2" d="M409.89,222.31c.11,4.53,4.57,6.39,9.74,6.39a27.81,27.81,0,0,0,7.86-.95l.88,2.4a34.21,34.21,0,0,1-9.45,1.14c-8.74,0-14-3.73-14-9.29s5-9.94,13.32-9.94c9.27,0,11.73,5.3,11.73,8.69a8.26,8.26,0,0,1-.18,1.56Zm15.13-2.4c.06-2.13-1.35-5.45-7.15-5.45-5.23,0-7.51,3.13-7.92,5.45Z" transform="translate(-186.31 -115.49)"/><path class="cls-2" d="M437.11,228c.29-1.34,1.94-2,3.89-1.56s3.16,1.72,2.87,3.06-1.83,2-3.9,1.55S436.82,229.3,437.11,228Zm2.61-5,3.15-18,5.5,1.22-4.76,17.67Z" transform="translate(-186.31 -115.49)"/></svg>