<?xml version="1.0" encoding="utf-8"?>
<!-- Generator: Adobe Illustrator 23.0.1, SVG Export Plug-In . SVG Version: 6.00 Build 0)  -->
<svg version="1.1" id="Capa_1" xmlns="http://www.w3.org/2000/svg" xmlns:xlink="http://www.w3.org/1999/xlink" x="0px" y="0px"
	 viewBox="0 0 55.8 55.8" style="enable-background:new 0 0 55.8 55.8;" xml:space="preserve">
<style type="text/css">
	.st0{fill:#80173B;}
	.st1{fill:#F9F9F9;stroke:#F9F9F9;stroke-width:0.5;stroke-miterlimit:10;}
</style>
<circle class="st0" cx="28" cy="28.9" r="23.1"/>
<g>
	<path class="st1" d="M19.5,32.8l9.5,9.6c1.1,1.1,2.8,1.3,4,0.2c1.2-1.1,1.2-2.9,0.1-4l-9.5-9.7c0,0,0,0,0-0.1l9.5-9.5
		c1.1-1.1,1.1-2.9,0.1-4c-0.6-0.6-1.3-0.8-2-0.8c-0.7,0-1.4,0.3-2,0.8l-9.7,9.8c-1,1.1-1.6,2.4-1.6,3.9V29
		C17.9,30.4,18.5,31.8,19.5,32.8z"/>
</g>
</svg>
